<?xml version="1.0" encoding="UTF-8"?><svg id="Camada_2" xmlns="http://www.w3.org/2000/svg" viewBox="0 0 113.75 68.25"><defs><style>.cls-1{fill:#797b84;}</style></defs><g id="Camada_2-2"><path class="cls-1" d="M82.45,0h-2.84v40.54c-3.13,2.58-5.24,6.36-5.62,10.65h-17.19c-.71-7.98-7.41-14.22-15.57-14.22-5.3,0-9.97,2.63-12.8,6.65-2.83-4.02-7.5-6.65-12.8-6.65-8.64,0-15.64,7-15.64,15.64s7,15.64,15.64,15.64c5.3,0,9.97-2.63,12.8-6.65,2.83,4.02,7.5,6.65,12.8,6.65,7.16,0,13.19-4.82,15.05-11.37h18.24c1.85,6.56,7.89,11.37,15.05,11.37s13.19-4.82,15.05-11.37h9.12V13.05l-.84-.84L101.54.84l-.84-.84h-18.25ZM89.56,42.66c5.49,0,9.95,4.46,9.95,9.95s-4.46,9.95-9.95,9.95-9.95-4.46-9.95-9.95,4.46-9.95,9.95-9.95ZM105.13,51.19c-.71-7.98-7.41-14.22-15.57-14.22-1.48,0-2.91.21-4.27.59v-9.12h22.75v22.75h-2.91ZM85.29,22.75V5.69h13.05l9.7,9.7v7.36h-22.75ZM5.67,52.61c0-5.49,4.46-9.95,9.95-9.95s9.95,4.46,9.95,9.95-4.46,9.95-9.95,9.95-9.95-4.46-9.95-9.95ZM51.17,52.61c0,5.49-4.46,9.95-9.95,9.95s-9.95-4.46-9.95-9.95,4.46-9.95,9.95-9.95,9.95,4.46,9.95,9.95Z"/></g></svg>