<svg width="126" height="126" viewBox="0 0 126 126" fill="none" xmlns="http://www.w3.org/2000/svg">
<path opacity="0.4" d="M15.8681 34.847C15.2972 44.671 16.8328 59.7123 23.2116 74.3992C29.6494 89.2042 41.1272 103.93 60.4997 112.317L63 113.4L65.5003 112.317C84.8728 103.93 96.3506 89.2238 102.788 74.3992C109.167 59.6926 110.703 44.671 110.132 34.847L109.915 30.811L106.135 29.3345L65.2838 13.486L63 12.6001L60.7359 13.486L19.8844 29.3345L16.1044 30.811L15.8681 34.847ZM42.1509 66.977C44.415 64.7917 46.6791 62.6063 48.9431 60.421C50.8134 62.3504 53.6484 65.2838 57.4481 69.2213C63.0591 61.5038 68.6897 53.7863 74.3006 46.0492C75.2259 44.7695 76.1513 43.5095 77.0766 42.2298C79.6163 44.0804 82.1756 45.931 84.7153 47.8013C83.79 49.081 82.8647 50.341 81.9394 51.6207C75.2259 60.8542 68.4928 70.0876 61.7794 79.3407C60.6769 80.8567 59.5744 82.3726 58.4719 83.8885C56.7394 82.097 52.3884 77.5885 45.4388 70.3829C44.3363 69.2607 43.2534 68.1188 42.1509 66.977Z" fill="white"/>
<path d="M84.7153 47.7815L81.9591 51.6009L61.7794 79.3209L58.4719 83.8687C56.7394 82.0772 52.3884 77.5687 45.4388 70.3631L42.1509 66.9572L48.9431 60.4012C50.8134 62.3306 53.6484 65.264 57.4481 69.2015L74.3006 46.0293L77.0766 42.21L84.7153 47.7618V47.7815Z" fill="white"/>
</svg>
