<?xml version="1.0" encoding="UTF-8"?><svg id="Camada_2" xmlns="http://www.w3.org/2000/svg" viewBox="0 0 102.37 85.31"><defs><style>.cls-1{fill:#797b84;}</style></defs><g id="Camada_2-2"><path class="cls-1" d="M5.69,5.69v62.56h5.76c.71-7.98,7.41-14.22,15.57-14.22s14.86,6.24,15.57,14.22h17.19c.5-5.47,3.8-10.13,8.46-12.51l.02-50.05H5.69ZM73.94,45.5v8.6c.46-.04.94-.07,1.42-.07,8.16,0,14.86,6.24,15.57,14.22h5.76v-22.75h-22.75ZM96.69,39.81v-7.36l-9.7-9.7h-13.05v17.06h22.75ZM11.96,73.94H0V0h73.94v17.06h15.39l.84.84,11.37,11.37.84.84v43.83h-11.96c-1.85,6.56-7.89,11.37-15.05,11.37s-13.19-4.82-15.05-11.37h-18.24c-1.85,6.56-7.89,11.37-15.05,11.37s-13.19-4.82-15.05-11.37ZM27.02,79.62c5.49,0,9.95-4.46,9.95-9.95s-4.46-9.95-9.95-9.95-9.95,4.46-9.95,9.95,4.46,9.95,9.95,9.95ZM75.36,79.62c5.49,0,9.95-4.46,9.95-9.95s-4.46-9.95-9.95-9.95-9.95,4.46-9.95,9.95,4.46,9.95,9.95,9.95Z"/></g></svg>