<?xml version="1.0" encoding="UTF-8"?><svg id="Camada_2" xmlns="http://www.w3.org/2000/svg" viewBox="0 0 102.37 73.94"><defs><style>.cls-1{fill:#797b84;}</style></defs><g id="Camada_2-2"><path class="cls-1" d="M0,0h81.01l.85,1.1,19.91,25.59.6.76v32.26h-11.45c-.71,7.98-7.41,14.22-15.57,14.22s-14.86-6.24-15.57-14.22h-17.19c-.71,7.98-7.41,14.22-15.57,14.22s-14.86-6.24-15.57-14.22H0V0ZM90.41,54.03h6.27v-22.75h-34.12V5.69H5.69v48.34h6.27c1.85-6.56,7.89-11.37,15.05-11.37s13.19,4.82,15.05,11.37h18.24c1.85-6.56,7.89-11.37,15.05-11.37s13.19,4.82,15.05,11.37ZM68.25,5.69v19.91h25.47l-15.48-19.91h-9.99ZM85.31,58.3c0-5.49-4.46-9.95-9.95-9.95s-9.95,4.46-9.95,9.95,4.46,9.95,9.95,9.95,9.95-4.46,9.95-9.95ZM27.02,68.25c5.49,0,9.95-4.46,9.95-9.95s-4.46-9.95-9.95-9.95-9.95,4.46-9.95,9.95,4.46,9.95,9.95,9.95Z"/></g></svg>