<svg width="266" height="51" viewBox="0 0 266 51" fill="none" xmlns="http://www.w3.org/2000/svg">
<g clip-path="url(#clip0_54_152)">
<path d="M23.954 0L28.966 12.9325L20.251 9.62986L11.543 6.3272L23.954 0Z" fill="#DCDDD9"/>
<path d="M0 50.3879H9.184L24.192 9.75476L16.961 7.90527L0 50.3879Z" fill="#DCDDD9"/>
<path d="M59.073 51.0002C56.105 51.0002 53.354 50.4857 50.82 49.4636C48.286 48.4346 46.067 46.9953 44.17 45.125C42.273 43.2616 40.796 41.0853 39.746 38.6031C38.696 36.1209 38.171 33.444 38.171 30.5724C38.171 27.7009 38.696 25.024 39.746 22.5417C40.796 20.0595 42.259 17.9041 44.142 16.0755C46.018 14.2469 48.223 12.8215 50.764 11.7925C53.298 10.7634 56.049 10.2559 59.017 10.2559C62.174 10.2559 64.981 10.7565 67.438 11.7647C69.895 12.7728 72.051 14.1495 73.885 15.9086L67.97 21.8395C66.92 20.7201 65.653 19.844 64.169 19.2113C62.685 18.5786 60.97 18.2587 59.017 18.2587C57.288 18.2587 55.699 18.5507 54.257 19.1278C52.808 19.7049 51.569 20.5393 50.54 21.617C49.504 22.7017 48.699 24.0019 48.118 25.5315C47.537 27.0612 47.243 28.7438 47.243 30.5655C47.243 32.3872 47.53 34.1254 48.118 35.655C48.699 37.1847 49.504 38.4919 50.54 39.5696C51.576 40.6542 52.815 41.4886 54.257 42.0865C55.699 42.6845 57.288 42.9835 59.017 42.9835C61.047 42.9835 62.811 42.6636 64.309 42.0309C65.814 41.3982 67.109 40.5221 68.194 39.4027L74.165 45.3336C72.247 47.0857 70.063 48.4694 67.599 49.4775C65.142 50.4857 62.293 50.9863 59.066 50.9863L59.073 51.0002Z" fill="#DCDDD9"/>
<path d="M79.016 50.3876V10.8809H87.864V50.3876H79.016ZM85.778 18.4318V10.8809H107.296V18.4318H85.778ZM85.778 33.8813V26.5528H105.609V33.8813H85.778ZM85.778 50.3876V42.7741H107.583V50.3876H85.778Z" fill="#DCDDD9"/>
<path d="M127.134 50.3876V10.8809H135.982V50.3876H127.134ZM133.952 50.3876V42.6629H151.823L148.743 50.3876H133.952Z" fill="#DCDDD9"/>
<path d="M153.202 50.3876L168.973 10.8809H176.974L192.577 50.3876H183.225L171.283 17.5974H174.496L162.386 50.3876H153.202Z" fill="#DCDDD9"/>
<path d="M183.841 37.8594H162.155V43.2271H183.841V37.8594Z" fill="#DCDDD9"/>
<path d="M196.273 50.3876V10.8809H202.468L205.114 18.7725V50.3876H196.266H196.273ZM223.706 50.3876L200.27 20.5594L202.468 10.8809L225.904 40.7091L223.706 50.3876ZM223.706 50.3876L221.34 42.496V10.8809H230.181V50.3876H223.706Z" fill="#DCDDD9"/>
<path d="M237.44 50.3876V10.8809H246.288V50.3876H237.44ZM244.195 18.4318V10.8809H265.713V18.4318H244.195ZM244.195 33.8813V26.5528H264.026V33.8813H244.195ZM244.195 50.3876V42.7741H266V50.3876H244.195Z" fill="#DCDDD9"/>
<path d="M25.088 14.5947L21.035 25.5874L30.198 50.3886H39.375L25.088 14.5947Z" fill="#DCDDD9"/>
<path d="M16.52 37.8594L14.539 43.2201H32.319V37.8594H16.52Z" fill="#DCDDD9"/>
</g>
<defs>
<clipPath id="clip0_54_152">
<rect width="266" height="51" fill="white"/>
</clipPath>
</defs>
</svg>
