<?xml version="1.0" encoding="UTF-8"?><svg id="Camada_2" xmlns="http://www.w3.org/2000/svg" viewBox="0 0 460.73 156.32"><defs><style>.cls-1{fill:#a6aab2;}.cls-2{fill:#da623e;}.cls-3{fill:#f5f5f5;}</style></defs><g id="Camada_2-2"><polygon class="cls-2" points="50.17 22.55 41.49 0 19.99 11.03 29.09 14.5 0 87.86 15.9 87.86 41.13 19.1 50.17 22.55"/><path class="cls-3" d="M102.32,88.93c-5.14,0-9.9-.89-14.29-2.68-4.39-1.79-8.23-4.31-11.51-7.56-3.29-3.25-5.84-7.04-7.66-11.37-1.82-4.33-2.73-8.99-2.73-14s.91-9.68,2.73-14c1.82-4.33,4.36-8.08,7.61-11.27,3.25-3.19,7.07-5.67,11.47-7.46,4.39-1.79,9.16-2.68,14.29-2.68,5.46,0,10.33.88,14.59,2.63,4.26,1.76,7.98,4.16,11.17,7.22l-10.25,10.34c-1.82-1.95-4.02-3.48-6.59-4.59-2.57-1.11-5.55-1.66-8.93-1.66-2.99,0-5.74.5-8.25,1.51-2.51,1.01-4.65,2.46-6.44,4.34-1.79,1.89-3.19,4.16-4.2,6.83-1.01,2.67-1.51,5.6-1.51,8.78s.5,6.21,1.51,8.88c1.01,2.67,2.41,4.94,4.2,6.83,1.79,1.89,3.94,3.35,6.44,4.39,2.5,1.04,5.25,1.56,8.25,1.56,3.51,0,6.57-.55,9.17-1.66,2.6-1.11,4.85-2.63,6.73-4.59l10.34,10.34c-3.32,3.06-7.11,5.46-11.37,7.22-4.26,1.76-9.19,2.63-14.78,2.63Z"/><path class="cls-3" d="M136.87,87.86V18.97h15.32v68.89h-15.32ZM148.57,32.15v-13.17h37.27v13.17h-37.27ZM148.57,59.08v-12.78h34.35v12.78h-34.35ZM148.57,87.86v-13.27h37.76v13.27h-37.76Z"/><path class="cls-3" d="M220.21,87.86V18.97h15.32v68.89h-15.32ZM232.01,87.86v-13.47h30.96l-5.34,13.47h-25.62Z"/><polygon class="cls-3" points="265.35 87.86 292.68 18.97 306.53 18.97 333.56 87.86 317.36 87.86 296.68 30.68 302.24 30.68 281.26 87.86 265.35 87.86"/><rect class="cls-3" x="280.87" y="66.01" width="37.57" height="9.36"/><path class="cls-3" d="M339.96,87.86V18.97h10.73l4.59,13.76v55.13h-15.32ZM387.48,87.86l-40.59-52.01,3.81-16.88,40.59,52.01-3.81,16.88ZM387.48,87.86l-4.1-13.76V18.97h15.32v68.89h-11.22Z"/><path class="cls-3" d="M411.26,87.86V18.97h15.32v68.89h-15.32ZM422.97,32.15v-13.17h37.27v13.17h-37.27ZM422.97,59.08v-12.78h34.35v12.78h-34.35ZM422.97,87.86v-13.27h37.76v13.27h-37.76Z"/><line class="cls-3" x1="34.08" y1="38.31" x2="34.08" y2="38.31"/><polygon class="cls-3" points="44.93 29.18 37.85 48.46 44.29 66.01 31.4 66.01 27.96 75.37 47.72 75.37 52.3 87.86 68.21 87.86 44.93 29.18"/><path class="cls-1" d="M63.08,155.83v-32h5.8v27.14h14.09v4.86h-19.89Z"/><path class="cls-1" d="M129.78,139.83c0,3.45-.64,6.4-1.93,8.85-1.29,2.45-3.04,4.33-5.25,5.63-2.21,1.3-4.72,1.95-7.52,1.95s-5.31-.65-7.52-1.96c-2.21-1.31-3.96-3.19-5.25-5.64-1.29-2.45-1.93-5.4-1.93-8.84s.64-6.4,1.93-8.85c1.29-2.45,3.04-4.33,5.25-5.63,2.21-1.3,4.72-1.95,7.52-1.95s5.31.65,7.52,1.95c2.21,1.3,3.96,3.18,5.25,5.63,1.29,2.45,1.93,5.4,1.93,8.85ZM123.95,139.83c0-2.43-.38-4.48-1.13-6.15-.76-1.67-1.8-2.94-3.13-3.8-1.33-.86-2.87-1.29-4.61-1.29s-3.28.43-4.61,1.29c-1.33.86-2.38,2.12-3.13,3.8-.76,1.67-1.13,3.72-1.13,6.15s.38,4.48,1.13,6.15c.75,1.67,1.8,2.94,3.13,3.8,1.33.86,2.87,1.29,4.61,1.29s3.28-.43,4.61-1.29c1.33-.86,2.38-2.12,3.13-3.8.75-1.67,1.13-3.72,1.13-6.15Z"/><path class="cls-1" d="M169.92,134.05c-.26-.84-.62-1.6-1.07-2.27s-1-1.25-1.62-1.73c-.63-.48-1.35-.84-2.16-1.09-.81-.24-1.7-.37-2.66-.37-1.72,0-3.25.43-4.59,1.3-1.34.87-2.4,2.13-3.16,3.8s-1.15,3.71-1.15,6.1.38,4.46,1.14,6.14c.76,1.68,1.82,2.95,3.17,3.82,1.35.87,2.93,1.3,4.72,1.3,1.62,0,3.03-.31,4.23-.94,1.19-.62,2.11-1.51,2.76-2.66.65-1.15.97-2.5.97-4.05l1.31.2h-8.69v-4.53h12.98v3.84c0,2.74-.58,5.11-1.75,7.11-1.17,2-2.77,3.54-4.81,4.62-2.04,1.08-4.39,1.62-7.03,1.62-2.95,0-5.53-.66-7.76-1.99-2.22-1.33-3.96-3.22-5.2-5.67-1.25-2.45-1.87-5.37-1.87-8.74,0-2.58.37-4.89,1.1-6.92s1.76-3.76,3.09-5.18c1.32-1.42,2.88-2.5,4.66-3.25,1.78-.74,3.72-1.12,5.81-1.12,1.77,0,3.42.26,4.95.77s2.89,1.25,4.09,2.2c1.19.95,2.17,2.07,2.95,3.38.77,1.3,1.28,2.74,1.52,4.31h-5.91Z"/><path class="cls-1" d="M200.7,123.83v32h-5.8v-32h5.8Z"/><path class="cls-1" d="M237.58,132.63c-.15-1.36-.76-2.43-1.84-3.19-1.08-.76-2.48-1.14-4.2-1.14-1.21,0-2.25.18-3.11.55-.86.37-1.53.86-1.98,1.48-.46.62-.69,1.34-.7,2.14,0,.67.15,1.25.46,1.73.31.49.73.9,1.26,1.24.53.34,1.12.62,1.77.85.65.23,1.3.42,1.95.58l3,.75c1.21.28,2.37.66,3.49,1.14,1.12.48,2.12,1.08,3.02,1.81.89.73,1.6,1.61,2.12,2.64.52,1.03.78,2.24.78,3.62,0,1.88-.48,3.52-1.44,4.95-.96,1.42-2.34,2.53-4.15,3.33-1.81.8-3.99,1.2-6.55,1.2s-4.65-.39-6.48-1.16-3.26-1.9-4.28-3.38c-1.03-1.48-1.58-3.28-1.66-5.41h5.7c.08,1.12.43,2.04,1.03,2.78.6.74,1.39,1.29,2.37,1.66.97.37,2.06.55,3.27.55s2.37-.19,3.32-.57c.95-.38,1.7-.91,2.24-1.59.54-.68.82-1.48.83-2.4-.01-.83-.26-1.52-.73-2.07-.48-.55-1.15-1-2.01-1.38-.86-.37-1.86-.7-3.01-.99l-3.64-.94c-2.64-.68-4.72-1.71-6.24-3.09-1.53-1.38-2.29-3.22-2.29-5.51,0-1.88.51-3.54,1.54-4.95,1.03-1.42,2.42-2.52,4.2-3.3,1.77-.79,3.78-1.18,6.02-1.18s4.26.39,5.98,1.18c1.71.79,3.06,1.88,4.04,3.27.98,1.39,1.48,2.99,1.52,4.79h-5.58Z"/><path class="cls-1" d="M260.55,128.69v-4.86h25.53v4.86h-9.89v27.14h-5.75v-27.14h-9.89Z"/><path class="cls-1" d="M309.98,123.83v32h-5.8v-32h5.8Z"/><path class="cls-1" d="M356.87,134.63h-5.84c-.17-.96-.47-1.81-.92-2.55-.45-.74-1.01-1.38-1.67-1.9-.67-.52-1.42-.91-2.27-1.18-.85-.27-1.76-.4-2.74-.4-1.74,0-3.28.44-4.62,1.3-1.34.87-2.4,2.14-3.16,3.81-.76,1.67-1.14,3.71-1.14,6.12s.38,4.51,1.15,6.18,1.82,2.93,3.16,3.78c1.34.85,2.87,1.27,4.6,1.27.96,0,1.86-.13,2.7-.38.84-.25,1.59-.63,2.27-1.13s1.24-1.11,1.7-1.84c.46-.73.78-1.56.96-2.5l5.84.03c-.22,1.52-.69,2.95-1.41,4.28-.72,1.33-1.67,2.51-2.84,3.52-1.17,1.02-2.53,1.81-4.09,2.38s-3.3.85-5.2.85c-2.81,0-5.32-.65-7.53-1.95-2.21-1.3-3.95-3.18-5.22-5.64-1.27-2.46-1.91-5.41-1.91-8.84s.64-6.4,1.92-8.85,3.03-4.33,5.23-5.63c2.21-1.3,4.71-1.95,7.5-1.95,1.78,0,3.44.25,4.97.75s2.9,1.23,4.09,2.2c1.2.96,2.18,2.14,2.96,3.53.78,1.39,1.28,2.98,1.52,4.76Z"/><path class="cls-1" d="M392.79,132.63c-.15-1.36-.76-2.43-1.84-3.19-1.08-.76-2.48-1.14-4.2-1.14-1.21,0-2.25.18-3.11.55-.86.37-1.53.86-1.98,1.48-.46.62-.69,1.34-.7,2.14,0,.67.15,1.25.46,1.73.31.49.73.9,1.26,1.24.53.34,1.12.62,1.77.85.65.23,1.3.42,1.95.58l3,.75c1.21.28,2.37.66,3.49,1.14,1.12.48,2.12,1.08,3.02,1.81.89.73,1.6,1.61,2.12,2.64.52,1.03.78,2.24.78,3.62,0,1.88-.48,3.52-1.44,4.95-.96,1.42-2.34,2.53-4.15,3.33-1.81.8-3.99,1.2-6.55,1.2s-4.65-.39-6.48-1.16-3.26-1.9-4.28-3.38c-1.03-1.48-1.58-3.28-1.66-5.41h5.7c.08,1.12.43,2.04,1.03,2.78.6.74,1.39,1.29,2.37,1.66.97.37,2.06.55,3.27.55s2.37-.19,3.32-.57c.95-.38,1.7-.91,2.24-1.59.54-.68.82-1.48.83-2.4-.01-.83-.26-1.52-.73-2.07-.48-.55-1.15-1-2.01-1.38-.86-.37-1.86-.7-3.01-.99l-3.64-.94c-2.64-.68-4.72-1.71-6.24-3.09-1.53-1.38-2.29-3.22-2.29-5.51,0-1.88.51-3.54,1.54-4.95,1.03-1.42,2.42-2.52,4.2-3.3,1.77-.79,3.78-1.18,6.02-1.18s4.26.39,5.98,1.18c1.71.79,3.06,1.88,4.04,3.27.98,1.39,1.48,2.99,1.52,4.79h-5.58Z"/></g></svg>