<svg xmlns:xlink="http://www.w3.org/1999/xlink" preserveAspectRatio="xMidYMid meet" data-bbox="0 0 1079.23 304.2" viewBox="0 0 1079.23 304.2" xmlns="http://www.w3.org/2000/svg" data-type="color" role="presentation" aria-hidden="true" aria-label="" width="1079.23"  height="304.2" >
    <g>
        <path d="M748.49 173.93v.03h-.97c.31 0 .65 0 .97-.03z" fill="#FF9700" data-color="1"></path>
        <path fill="#388904" d="M906.87 260.44V0h-43.76v304.2h216.12v-43.76H906.87z" data-color="2"></path>
        <path d="M328.49 304.13 189.49.01h-50.52L0 304.13h110.73l-19.8-60.44 73.3-51.51 73.3 51.51-19.82 60.44h110.78zM152.04 104.78h24.4v29.45h-24.4v-29.45zm59.2 103.34-47-34.23-47 34.23v-55.59h94.01v55.59z" fill="#002664" data-color="3"></path>
        <path d="M590.59 217.23c0 48.05-38.95 86.96-86.98 86.96v-.05H356.18V159.81l76.78 1.61-32.78 77.33h21.91l53.68-76.42 41.58.9c6.94 0 12.54-5.62 12.54-12.56 0-6.92-5.6-12.54-12.54-12.54l-41.58.9-53.68-76.42h-21.91l32.78 77.33-76.78 1.59V.01h147.43v.05c48.03 0 86.98 38.95 86.98 86.98 0 25.92-11.35 49.18-29.32 65.1 17.97 15.91 29.32 39.17 29.32 65.09z" fill="#C60000" data-color="4"></path>
        <path d="M834.44 87.02c0 47.67-38.39 86.38-85.96 86.9-.31.03-.66.03-.97.03H662.1V304.2h-43.75V141.78c0-.35.01-.71.03-1.06.01-.28.03-.56.06-.83.95-11.19 10.34-19.98 21.79-19.98 12.08 0 21.87 9.79 21.87 21.87h54.91c0-12.09 9.8-21.87 21.88-21.87 12.08 0 21.87 9.79 21.87 21.87h18.3V82.25l-36.75-36.76h-41.23v77.99h-18.3V27.19h-64.44V0h129.17v.06c48.03 0 86.93 38.91 86.93 86.96z" fill="#FF9700" data-color="1"></path>
    </g>
</svg>